REM DIRINDEX 1\2,1\3
REM DIRNAME cjc143,folder01,folder02
TITLE ""
FILE "2000 phrasesTrack42.mp3" MP3
  TRACK 01 AUDIO
    TITLE "2:cjc143_1702"
    INDEX 01 00:00:00
  TRACK 02 AUDIO
    TITLE "0:"
    INDEX 01 00:00:52
  TRACK 03 AUDIO
    TITLE "2:cjc143_1703"
    INDEX 01 00:01:48
  TRACK 04 AUDIO
    TITLE "0:"
    INDEX 01 00:02:63
  TRACK 05 AUDIO
    TITLE "2:cjc143_1704"
    INDEX 01 00:02:73
  TRACK 06 AUDIO
    TITLE "0:"
    INDEX 01 00:04:19
  TRACK 07 AUDIO
    TITLE "2:cjc143_1705"
    INDEX 01 00:04:25
  TRACK 08 AUDIO
    TITLE "0:"
    INDEX 01 00:05:50
  TRACK 09 AUDIO
    TITLE "2:cjc143_1706"
    INDEX 01 00:05:71
  TRACK 10 AUDIO
    TITLE "0:"
    INDEX 01 00:07:07
  TRACK 11 AUDIO
    TITLE "2:cjc143_1707"
    INDEX 01 00:07:17
  TRACK 12 AUDIO
    TITLE "0:"
    INDEX 01 00:08:44
  TRACK 13 AUDIO
    TITLE "2:cjc143_1708"
    INDEX 01 00:08:52
  TRACK 14 AUDIO
    TITLE "0:"
    INDEX 01 00:10:08
  TRACK 15 AUDIO
    TITLE "2:cjc143_1709"
    INDEX 01 00:10:23
  TRACK 16 AUDIO
    TITLE "0:"
    INDEX 01 00:11:44
  TRACK 17 AUDIO
    TITLE "2:cjc143_1710"
    INDEX 01 00:11:50
  TRACK 18 AUDIO
    TITLE "0:"
    INDEX 01 00:12:71
  TRACK 19 AUDIO
    TITLE "2:cjc143_1711"
    INDEX 01 00:13:00
  TRACK 20 AUDIO
    TITLE "0:"
    INDEX 01 00:14:11
  TRACK 21 AUDIO
    TITLE "2:cjc143_1712"
    INDEX 01 00:14:19
  TRACK 22 AUDIO
    TITLE "0:"
    INDEX 01 00:15:40
  TRACK 23 AUDIO
    TITLE "2:cjc143_1713"
    INDEX 01 00:15:50
  TRACK 24 AUDIO
    TITLE "0:"
    INDEX 01 00:17:14
  TRACK 25 AUDIO
    TITLE "2:cjc143_1714"
    INDEX 01 00:17:27
  TRACK 26 AUDIO
    TITLE "0:"
    INDEX 01 00:18:56
  TRACK 27 AUDIO
    TITLE "2:cjc143_1715"
    INDEX 01 00:19:07
  TRACK 28 AUDIO
    TITLE "0:"
    INDEX 01 00:20:55
  TRACK 29 AUDIO
    TITLE "2:cjc143_1716"
    INDEX 01 00:20:63
  TRACK 30 AUDIO
    TITLE "0:"
    INDEX 01 00:22:17
  TRACK 31 AUDIO
    TITLE "2:cjc143_1717"
    INDEX 01 00:22:21
  TRACK 32 AUDIO
    TITLE "0:"
    INDEX 01 00:23:40
  TRACK 33 AUDIO
    TITLE "2:cjc143_1718"
    INDEX 01 00:23:61
  TRACK 34 AUDIO
    TITLE "0:"
    INDEX 01 00:25:19
  TRACK 35 AUDIO
    TITLE "2:cjc143_1719"
    INDEX 01 00:25:35
  TRACK 36 AUDIO
    TITLE "0:"
    INDEX 01 00:26:71
  TRACK 37 AUDIO
    TITLE "2:cjc143_1720"
    INDEX 01 00:27:16
  TRACK 38 AUDIO
    TITLE "0:"
    INDEX 01 00:28:41
  TRACK 39 AUDIO
    TITLE "2:cjc143_1721"
    INDEX 01 00:28:64
  TRACK 40 AUDIO
    TITLE "0:"
    INDEX 01 00:30:20
  TRACK 41 AUDIO
    TITLE "2:cjc143_1722"
    INDEX 01 00:30:30
  TRACK 42 AUDIO
    TITLE "0:"
    INDEX 01 00:31:61
  TRACK 43 AUDIO
    TITLE "2:cjc143_1723"
    INDEX 01 00:32:35
  TRACK 44 AUDIO
    TITLE "0:"
    INDEX 01 00:33:73
  TRACK 45 AUDIO
    TITLE "2:cjc143_1724"
    INDEX 01 00:34:06
  TRACK 46 AUDIO
    TITLE "0:"
    INDEX 01 00:35:64
  TRACK 47 AUDIO
    TITLE "2:cjc143_1725"
    INDEX 01 00:36:03
  TRACK 48 AUDIO
    TITLE "0:"
    INDEX 01 00:37:54
  TRACK 49 AUDIO
    TITLE "2:cjc143_1726"
    INDEX 01 00:37:71
  TRACK 50 AUDIO
    TITLE "0:"
    INDEX 01 00:39:45
  TRACK 51 AUDIO
    TITLE "2:cjc143_1727"
    INDEX 01 00:40:19
  TRACK 52 AUDIO
    TITLE "0:"
    INDEX 01 00:41:40
  TRACK 53 AUDIO
    TITLE "2:cjc143_1728"
    INDEX 01 00:41:49
  TRACK 54 AUDIO
    TITLE "0:"
    INDEX 01 00:42:68
  TRACK 55 AUDIO
    TITLE "2:cjc143_1729"
    INDEX 01 00:43:21
  TRACK 56 AUDIO
    TITLE "0:"
    INDEX 01 00:44:28
  TRACK 57 AUDIO
    TITLE "2:cjc143_1730"
    INDEX 01 00:44:40
  TRACK 58 AUDIO
    TITLE "0:"
    INDEX 01 00:45:51
  TRACK 59 AUDIO
    TITLE "2:cjc143_1731"
    INDEX 01 00:45:69
  TRACK 60 AUDIO
    TITLE "0:"
    INDEX 01 00:47:28
  TRACK 61 AUDIO
    TITLE "2:cjc143_1732"
    INDEX 01 00:47:30
  TRACK 62 AUDIO
    TITLE "0:"
    INDEX 01 00:49:25
  TRACK 63 AUDIO
    TITLE "2:cjc143_1733"
    INDEX 01 00:49:74
  TRACK 64 AUDIO
    TITLE "0:"
    INDEX 01 00:51:16
  TRACK 65 AUDIO
    TITLE "2:cjc143_1734"
    INDEX 01 00:51:32
  TRACK 66 AUDIO
    TITLE "0:"
    INDEX 01 00:52:41
  TRACK 67 AUDIO
    TITLE "2:cjc143_1735"
    INDEX 01 00:52:53
  TRACK 68 AUDIO
    TITLE "0:"
    INDEX 01 00:54:03
  TRACK 69 AUDIO
    TITLE "2:cjc143_1736"
    INDEX 01 00:54:13
  TRACK 70 AUDIO
    TITLE "0:"
    INDEX 01 00:55:65
  TRACK 71 AUDIO
    TITLE "2:cjc143_1737"
    INDEX 01 00:56:04
  TRACK 72 AUDIO
    TITLE "0:"
    INDEX 01 00:57:64
  TRACK 73 AUDIO
    TITLE "2:cjc143_1738"
    INDEX 01 00:58:03
  TRACK 74 AUDIO
    TITLE "0:"
    INDEX 01 00:59:53
  TRACK 75 AUDIO
    TITLE "2:cjc143_1739"
    INDEX 01 00:59:69
  TRACK 76 AUDIO
    TITLE "0:"
    INDEX 01 01:01:44
  TRACK 77 AUDIO
    TITLE "2:cjc143_1740"
    INDEX 01 01:01:60
  TRACK 78 AUDIO
    TITLE "0:"
    INDEX 01 01:03:33
  TRACK 79 AUDIO
    TITLE "2:cjc143_1741"
    INDEX 01 01:04:01
  TRACK 80 AUDIO
    TITLE "0:"
    INDEX 01 01:05:07
  TRACK 81 AUDIO
    TITLE "2:cjc143_1742"
    INDEX 01 01:05:17
  TRACK 82 AUDIO
    TITLE "0:"
    INDEX 01 01:06:34
  TRACK 83 AUDIO
    TITLE "2:cjc143_1743"
    INDEX 01 01:06:43
  TRACK 84 AUDIO
    TITLE "0:"
    INDEX 01 01:07:63
  TRACK 85 AUDIO
    TITLE "2:cjc143_1744"
    INDEX 01 01:07:74
  TRACK 86 AUDIO
    TITLE "0:"
    INDEX 01 01:09:10
  TRACK 87 AUDIO
    TITLE "2:cjc143_1745"
    INDEX 01 01:09:16
  TRACK 88 AUDIO
    TITLE "0:"
    INDEX 01 01:10:43
  TRACK 89 AUDIO
    TITLE "2:cjc143_1746"
    INDEX 01 01:10:55
  TRACK 90 AUDIO
    TITLE "0:"
    INDEX 01 01:12:13
  TRACK 91 AUDIO
    TITLE "2:cjc143_1747"
    INDEX 01 01:12:46
  TRACK 92 AUDIO
    TITLE "0:"
    INDEX 01 01:14:08
  TRACK 93 AUDIO
    TITLE "2:cjc143_1748"
    INDEX 01 01:14:23
  TRACK 94 AUDIO
    TITLE "0:"
    INDEX 01 01:15:46
  TRACK 95 AUDIO
    TITLE "2:cjc143_1749"
    INDEX 01 01:15:66
  TRACK 96 AUDIO
    TITLE "0:"
    INDEX 01 01:17:12
  TRACK 97 AUDIO
    TITLE "2:cjc143_1750"
    INDEX 01 01:17:63
  TRACK 98 AUDIO
    TITLE "0:"
    INDEX 01 01:19:28
  TRACK 99 AUDIO
    TITLE "2:cjc143_1751"
    INDEX 01 01:19:40
  TRACK 100 AUDIO
    TITLE "0:"
    INDEX 01 01:20:63
  TRACK 101 AUDIO
    TITLE "2:cjc143_1752"
    INDEX 01 01:21:10
  TRACK 102 AUDIO
    TITLE "0:"
    INDEX 01 01:22:50
  TRACK 103 AUDIO
    TITLE "2:cjc143_1753"
    INDEX 01 01:23:16
  TRACK 104 AUDIO
    TITLE "0:"
    INDEX 01 01:24:32
  TRACK 105 AUDIO
    TITLE "2:cjc143_1754"
    INDEX 01 01:24:47
  TRACK 106 AUDIO
    TITLE "0:"
    INDEX 01 01:25:64
  TRACK 107 AUDIO
    TITLE "2:cjc143_1755"
    INDEX 01 01:26:07
  TRACK 108 AUDIO
    TITLE "0:"
    INDEX 01 01:27:30
  TRACK 109 AUDIO
    TITLE "2:cjc143_1756"
    INDEX 01 01:27:50
  TRACK 110 AUDIO
    TITLE "0:"
    INDEX 01 01:29:01
  TRACK 111 AUDIO
    TITLE "2:cjc143_1757"
    INDEX 01 01:29:39
  TRACK 112 AUDIO
    TITLE "0:"
    INDEX 01 01:30:60
  TRACK 113 AUDIO
    TITLE "2:cjc143_1758"
    INDEX 01 01:30:73
  TRACK 114 AUDIO
    TITLE "0:"
    INDEX 01 01:33:03
  TRACK 115 AUDIO
    TITLE "2:cjc143_1759"
    INDEX 01 01:33:13
  TRACK 116 AUDIO
    TITLE "0:"
    INDEX 01 01:34:32
  TRACK 117 AUDIO
    TITLE "2:cjc143_1760"
    INDEX 01 01:34:44
  TRACK 118 AUDIO
    TITLE "0:"
    INDEX 01 01:35:71
  TRACK 119 AUDIO
    TITLE "2:cjc143_1761"
    INDEX 01 01:36:09
  TRACK 120 AUDIO
    TITLE "0:"
    INDEX 01 01:37:32
  TRACK 121 AUDIO
    TITLE "2:cjc143_1762"
    INDEX 01 01:37:42
  TRACK 122 AUDIO
    TITLE "0:"
    INDEX 01 01:38:69
  TRACK 123 AUDIO
    TITLE "2:cjc143_1763"
    INDEX 01 01:39:12
  TRACK 124 AUDIO
    TITLE "0:"
    INDEX 01 01:40:62
  TRACK 125 AUDIO
    TITLE "2:cjc143_1764"
    INDEX 01 01:40:70
  TRACK 126 AUDIO
    TITLE "0:"
    INDEX 01 01:42:37
  TRACK 127 AUDIO
    TITLE "2:cjc143_1765"
    INDEX 01 01:42:43
  TRACK 128 AUDIO
    TITLE "0:"
    INDEX 01 01:43:62
  TRACK 129 AUDIO
    TITLE "2:cjc143_1766"
    INDEX 01 01:43:72
  TRACK 130 AUDIO
    TITLE "0:"
    INDEX 01 01:45:14
  TRACK 131 AUDIO
    TITLE "2:cjc143_1767"
    INDEX 01 01:45:24
  TRACK 132 AUDIO
    TITLE "0:"
    INDEX 01 01:46:43
  TRACK 133 AUDIO
    TITLE "2:cjc143_1768"
    INDEX 01 01:46:55
  TRACK 134 AUDIO
    TITLE "0:"
    INDEX 01 01:47:66
  TRACK 135 AUDIO
    TITLE "2:cjc143_1769"
    INDEX 01 01:48:16
  TRACK 136 AUDIO
    TITLE "0:"
    INDEX 01 01:49:32
  TRACK 137 AUDIO
    TITLE "2:cjc143_1770"
    INDEX 01 01:49:47
  TRACK 138 AUDIO
    TITLE "0:"
    INDEX 01 01:50:62
  TRACK 139 AUDIO
    TITLE "2:cjc143_1771"
    INDEX 01 01:51:15
  TRACK 140 AUDIO
    TITLE "0:"
    INDEX 01 01:52:34
  TRACK 141 AUDIO
    TITLE "2:cjc143_1772"
    INDEX 01 01:52:48
  TRACK 142 AUDIO
    TITLE "0:"
    INDEX 01 01:54:05
  TRACK 143 AUDIO
    TITLE "2:cjc143_1773"
    INDEX 01 01:54:11
  TRACK 144 AUDIO
    TITLE "0:"
    INDEX 01 01:55:34
  TRACK 145 AUDIO
    TITLE "2:cjc143_1774"
    INDEX 01 01:55:52
  TRACK 146 AUDIO
    TITLE "0:"
    INDEX 01 01:56:69
  TRACK 147 AUDIO
    TITLE "2:cjc143_1775"
    INDEX 01 01:57:13
  TRACK 148 AUDIO
    TITLE "0:"
    INDEX 01 01:58:34
